- 
http://www.Speed.Cd 
       
http://www.Speed.Cd      fast  and The Hottest Private Tracker on the net

(((--Submit for invite!!--)))

Please Seed back to make the speed Faster!!!

------------------nfo--------------------------
-








































          
          
              
              
                    
                    
                    
                    

Evil.Bong.3.The.Wrath.Of.Bong.2011.DVDRiP.XviD.AC3-SiC

Poster:
[img]http://img828.imageshack.us/img828/3997/evilbong3.jpg[/img]

IMDB Link: 
http://www.imdb.com/title/tt1791500/

Description:
An evil alien bong crashes on earth. Its intent: world domination. Our stoner heroes are sent to the alien bong planet and held captive by nude alien beauties. Their only hope to escape and save planet earth: Eebee, the original Evil Bong.  

MediaInfo:
General
Complete name                    : Evil.Bong.3.The.Wrath.Of.Bong.2011.DVDRiP.XviD.AC3-SiC.avi
Format                           : AVI
Format/Info                      : Audio Video Interleave
File size                        : 1.30 GiB
Duration                         : 1h 26mn
Overall bit rate                 : 2 166 Kbps

Video
ID                               : 0
Format                           : MPEG-4 Visual
Format profile                   : Advanced Simple@L5
Format settings, BVOP            : 1
Format settings, QPel            : No
Format settings, GMC             : No warppoints
Format settings, Matrix          : Default (H.263)
Codec ID                         : XVID
Codec ID/Hint                    : XviD
Duration                         : 1h 26mn
Bit rate                         : 1 967 Kbps
Width                            : 720 pixels
Height                           : 400 pixels
Display aspect ratio             : 16:9
Frame rate                       : 23.976 fps
Color space                      : YUV
Chroma subsampling               : 4:2:0
Bit depth                        : 8 bits
Scan type                        : Progressive
Compression mode                 : Lossy
Bits/(Pixel*Frame)               : 0.285
Stream size                      : 1.18 GiB (91%)
Writing library                  : XviD 1.2.1 (UTC 2008-12-04)

Audio
ID                               : 1
Format                           : AC-3
Format/Info                      : Audio Coding 3
Mode extension                   : CM (complete main)
Codec ID                         : 2000
Duration                         : 1h 26mn
Bit rate mode                    : Constant
Bit rate                         : 192 Kbps
Channel(s)                       : 2 channels
Channel positions                : Front: L R
Sampling rate                    : 48.0 KHz
Bit depth                        : 16 bits
Compression mode                 : Lossy
Stream size                      : 118 MiB (9%)
Alignment                        : Aligned on interleaves
Interleave, duration             : 64 ms (1.53 video frames)
Interleave, preload duration     : 192 ms
Title                            : VTS_01_1 T80 2_0ch 192Kbps DELAY 0ms

Screenshots:
[img]http://img854.imageshack.us/img854/8500/vlcsnap2011092215h23m58.png[/img]
[img]http://img835.imageshack.us/img835/3677/vlcsnap2011092215h24m10.png[/img]
[img]http://img215.imageshack.us/img215/9994/vlcsnap2011092215h24m16.png[/img]
[img]http://img3.imageshack.us/img3/6749/vlcsnap2011092215h24m30.png[/img]
[img]http://img84.imageshack.us/img84/5086/vlcsnap2011092215h24m46.png[/img]


Note : Ok fellow stoner horror fans, you know you've been waiting on it, so this bud's for you. Toke up and enjoy. No, it's not in 3D. Sorry.  

Source: Our own

Enjoy!

Respects to CaptainHomey, Cyanide, CM8, Rx, THC, ELEKTRI4KA, 
Killerhz, PA, YeFsTe, BoxSlots, MrRep and everyone in the struggle...